<svg xmlns="http://www.w3.org/2000/svg" xmlns:xlink="http://www.w3.org/1999/xlink" width="500" zoomAndPan="magnify" viewBox="0 0 375 374.999991" height="500" preserveAspectRatio="xMidYMid meet" version="1.0"><defs><clipPath id="09f7061ba0"><path d="M 20.160156 14.761719 L 354.660156 14.761719 L 354.660156 349.261719 L 20.160156 349.261719 Z M 20.160156 14.761719 " clip-rule="nonzero"/></clipPath></defs><g clip-path="url(#09f7061ba0)"><path fill="#9ec3bc" d="M 187.496094 14.761719 C 95.042969 14.761719 20.160156 89.648438 20.160156 182.101562 C 20.160156 274.554688 95.042969 349.4375 187.496094 349.4375 C 279.949219 349.4375 354.835938 274.554688 354.835938 182.101562 C 354.835938 89.648438 279.949219 14.761719 187.496094 14.761719 Z M 187.496094 315.972656 C 113.53125 315.972656 53.625 256.066406 53.625 182.101562 C 53.625 108.136719 113.53125 48.230469 187.496094 48.230469 C 261.460938 48.230469 321.367188 108.136719 321.367188 182.101562 C 321.367188 256.066406 261.460938 315.972656 187.496094 315.972656 Z M 187.496094 315.972656 " fill-opacity="1" fill-rule="nonzero"/></g></svg>